<svg width="17" height="16" viewBox="0 0 17 16" fill="none" xmlns="http://www.w3.org/2000/svg">
<path d="M3.23542 5.40795C3.32076 5.30129 3.42742 5.24795 3.55542 5.24795C3.68342 5.24795 3.80076 5.27995 3.90742 5.34395L8.09942 9.53595L12.2594 5.40795C12.3448 5.30129 12.4514 5.24795 12.5794 5.24795C12.7074 5.24795 12.8141 5.27995 12.8994 5.34395L12.9634 5.40795C13.0488 5.49329 13.0968 5.59995 13.1074 5.72795C13.1181 5.85595 13.0808 5.96262 12.9954 6.04795L8.45142 10.592C8.36609 10.6986 8.25942 10.752 8.13142 10.752C8.00342 10.752 7.88609 10.72 7.77942 10.656L3.23542 6.11195C3.15009 6.00529 3.10742 5.88262 3.10742 5.74395C3.10742 5.60529 3.15009 5.49329 3.23542 5.40795Z" fill="#002D58"/>
</svg>
