<svg width="17" height="16" viewBox="0 0 17 16" fill="none" xmlns="http://www.w3.org/2000/svg">
<path d="M2.02595 1.98381H6.02595V5.98381H2.02595V1.98381ZM1.51395 0.991812C1.36462 0.991812 1.24195 1.03981 1.14595 1.13581C1.04995 1.23181 1.00195 1.35448 1.00195 1.50381V6.49581C1.00195 6.64515 1.04995 6.76781 1.14595 6.86381C1.24195 6.95981 1.36462 7.00781 1.51395 7.00781H6.50595C6.65529 7.00781 6.77795 6.95981 6.87395 6.86381C6.96995 6.76781 7.01795 6.64515 7.01795 6.49581V1.50381C7.01795 1.35448 6.96995 1.23181 6.87395 1.13581C6.77795 1.03981 6.65529 0.991812 6.50595 0.991812H1.51395ZM10.026 1.98381V5.98381H14.026V1.98381H10.026ZM9.51395 0.991812H14.506C14.6553 0.991812 14.778 1.03981 14.874 1.13581C14.97 1.23181 15.018 1.35448 15.018 1.50381V6.49581C15.018 6.64515 14.97 6.76781 14.874 6.86381C14.778 6.95981 14.6553 7.00781 14.506 7.00781H9.51395C9.36462 7.00781 9.24195 6.95981 9.14595 6.86381C9.04995 6.76781 9.00195 6.64515 9.00195 6.49581V1.50381C9.00195 1.35448 9.04995 1.23181 9.14595 1.13581C9.24195 1.03981 9.36462 0.991812 9.51395 0.991812ZM2.02595 9.98381V13.9838H6.02595V9.98381H2.02595ZM1.51395 8.99181H6.50595C6.65529 8.99181 6.77795 9.03981 6.87395 9.13581C6.96995 9.23181 7.01795 9.35448 7.01795 9.50381V14.4958C7.01795 14.6451 6.96995 14.7678 6.87395 14.8638C6.77795 14.9598 6.65529 15.0078 6.50595 15.0078H1.51395C1.36462 15.0078 1.24195 14.9598 1.14595 14.8638C1.04995 14.7678 1.00195 14.6451 1.00195 14.4958V9.50381C1.00195 9.35448 1.04995 9.23181 1.14595 9.13581C1.24195 9.03981 1.36462 8.99181 1.51395 8.99181ZM10.026 9.98381V13.9838H14.026V9.98381H10.026ZM9.51395 8.99181H14.506C14.6553 8.99181 14.778 9.03981 14.874 9.13581C14.97 9.23181 15.018 9.35448 15.018 9.50381V14.4958C15.018 14.6451 14.97 14.7678 14.874 14.8638C14.778 14.9598 14.6553 15.0078 14.506 15.0078H9.51395C9.36462 15.0078 9.24195 14.9598 9.14595 14.8638C9.04995 14.7678 9.00195 14.6451 9.00195 14.4958V9.50381C9.00195 9.35448 9.04995 9.23181 9.14595 9.13581C9.24195 9.03981 9.36462 8.99181 9.51395 8.99181Z" fill="#002D58"/>
</svg>
