<svg width="17" height="16" viewBox="0 0 17 16" fill="none" xmlns="http://www.w3.org/2000/svg">
<path d="M11.8438 8.51181C12.4411 8.51181 12.9851 8.65581 13.4758 8.94381C13.9665 9.23181 14.3611 9.62648 14.6598 10.1278C14.9585 10.6291 15.1078 11.1731 15.1078 11.7598C15.1078 12.3465 14.9585 12.8851 14.6598 13.3758C14.3611 13.8665 13.9665 14.2611 13.4758 14.5598C12.9851 14.8585 12.4465 15.0078 11.8598 15.0078C11.2731 15.0078 10.7291 14.8585 10.2278 14.5598C9.72646 14.2611 9.3318 13.8665 9.0438 13.3758C8.7558 12.8851 8.6118 12.3465 8.6118 11.7598C8.6118 11.1731 8.7558 10.6291 9.0438 10.1278C9.3318 9.62648 9.72646 9.23181 10.2278 8.94381C10.7291 8.65581 11.2678 8.51181 11.8438 8.51181ZM4.3558 8.51181C4.9318 8.51181 5.47046 8.65581 5.9718 8.94381C6.47313 9.23181 6.8678 9.62648 7.1558 10.1278C7.4438 10.6291 7.5878 11.1731 7.5878 11.7598C7.5878 12.3465 7.4438 12.8851 7.1558 13.3758C6.8678 13.8665 6.47313 14.2611 5.9718 14.5598C5.47046 14.8585 4.92646 15.0078 4.3398 15.0078C3.75313 15.0078 3.21446 14.8585 2.7238 14.5598C2.23313 14.2611 1.83846 13.8665 1.5398 13.3758C1.24113 12.8851 1.0918 12.3465 1.0918 11.7598C1.0918 11.1731 1.24113 10.6291 1.5398 10.1278C1.83846 9.62648 2.23313 9.23181 2.7238 8.94381C3.21446 8.65581 3.75846 8.51181 4.3558 8.51181ZM11.8438 9.50381C11.2251 9.50381 10.6971 9.72248 10.2598 10.1598C9.82246 10.5971 9.6038 11.1251 9.6038 11.7438C9.6038 12.3625 9.82246 12.8958 10.2598 13.3438C10.6971 13.7918 11.2251 14.0158 11.8438 14.0158C12.4625 14.0158 12.9958 13.7918 13.4438 13.3438C13.8918 12.8958 14.1158 12.3625 14.1158 11.7438C14.1158 11.1251 13.8918 10.5971 13.4438 10.1598C12.9958 9.72248 12.4625 9.50381 11.8438 9.50381ZM4.3558 9.50381C3.73713 9.50381 3.2038 9.72248 2.7558 10.1598C2.3078 10.5971 2.08913 11.1251 2.0998 11.7438C2.11046 12.3625 2.33446 12.8958 2.7718 13.3438C3.20913 13.7918 3.73713 14.0158 4.3558 14.0158C4.97446 14.0158 5.50246 13.7918 5.9398 13.3438C6.37713 12.8958 6.5958 12.3625 6.5958 11.7438C6.5958 11.1251 6.37713 10.5971 5.9398 10.1598C5.50246 9.72248 4.97446 9.50381 4.3558 9.50381ZM11.8438 0.991812C12.4411 0.991812 12.9851 1.14114 13.4758 1.43981C13.9665 1.73848 14.3611 2.13315 14.6598 2.62381C14.9585 3.11448 15.1078 3.65314 15.1078 4.23981C15.1078 4.82648 14.9585 5.37048 14.6598 5.87181C14.3611 6.37315 13.9665 6.76781 13.4758 7.05581C12.9851 7.34381 12.4465 7.48781 11.8598 7.48781C11.2731 7.48781 10.7291 7.34381 10.2278 7.05581C9.72646 6.76781 9.3318 6.37315 9.0438 5.87181C8.7558 5.37048 8.6118 4.82648 8.6118 4.23981C8.6118 3.65314 8.7558 3.11448 9.0438 2.62381C9.3318 2.13315 9.72646 1.73848 10.2278 1.43981C10.7291 1.14114 11.2678 0.991812 11.8438 0.991812ZM4.3558 0.991812C4.9318 0.991812 5.47046 1.14114 5.9718 1.43981C6.47313 1.73848 6.8678 2.13315 7.1558 2.62381C7.4438 3.11448 7.5878 3.65314 7.5878 4.23981C7.5878 4.82648 7.4438 5.37048 7.1558 5.87181C6.8678 6.37315 6.47313 6.76781 5.9718 7.05581C5.47046 7.34381 4.92646 7.48781 4.3398 7.48781C3.75313 7.48781 3.21446 7.34381 2.7238 7.05581C2.23313 6.76781 1.83846 6.37315 1.5398 5.87181C1.24113 5.37048 1.0918 4.82648 1.0918 4.23981C1.0918 3.65314 1.24113 3.11448 1.5398 2.62381C1.83846 2.13315 2.23313 1.73848 2.7238 1.43981C3.21446 1.14114 3.75846 0.991812 4.3558 0.991812ZM11.8438 1.98381C11.2251 1.98381 10.6971 2.20781 10.2598 2.65581C9.82246 3.10381 9.6038 3.63715 9.6038 4.25581C9.6038 4.87448 9.82246 5.40248 10.2598 5.83981C10.6971 6.27715 11.2251 6.49581 11.8438 6.49581C12.4625 6.49581 12.9958 6.27715 13.4438 5.83981C13.8918 5.40248 14.1158 4.87448 14.1158 4.25581C14.1158 3.63715 13.8918 3.10381 13.4438 2.65581C12.9958 2.20781 12.4625 1.98381 11.8438 1.98381ZM4.3558 1.98381C3.73713 1.98381 3.2038 2.20781 2.7558 2.65581C2.3078 3.10381 2.08913 3.63715 2.0998 4.25581C2.11046 4.87448 2.33446 5.40248 2.7718 5.83981C3.20913 6.27715 3.73713 6.49581 4.3558 6.49581C4.97446 6.49581 5.50246 6.27715 5.9398 5.83981C6.37713 5.40248 6.5958 4.87448 6.5958 4.25581C6.5958 3.63715 6.37713 3.10381 5.9398 2.65581C5.50246 2.20781 4.97446 1.98381 4.3558 1.98381Z" fill="#002D58"/>
</svg>
