<svg width="32" height="32" viewBox="0 0 32 32" fill="none" xmlns="http://www.w3.org/2000/svg">
<path d="M26.7892 19.1007L27.0465 16.5753C27.1838 15.2273 27.2732 14.338 27.2025 13.7767H27.2292C28.3905 13.7767 29.3332 12.782 29.3332 11.5553C29.3332 10.3287 28.3905 9.33268 27.2278 9.33268C26.0652 9.33268 25.1225 10.3273 25.1225 11.5553C25.1225 12.11 25.3158 12.618 25.6345 13.0073C25.1772 13.3047 24.5785 13.934 23.6772 14.8807C22.9838 15.61 22.6372 15.974 22.2505 16.0313C22.0357 16.062 21.8166 16.0296 21.6198 15.938C21.2625 15.7727 21.0238 15.322 20.5478 14.4193L18.0358 9.66602C17.7425 9.11002 17.4958 8.64468 17.2732 8.27002C18.1838 7.77935 18.8065 6.78068 18.8065 5.63002C18.8065 3.99135 17.5505 2.66602 15.9998 2.66602C14.4492 2.66602 13.1932 3.99268 13.1932 5.62868C13.1932 6.78068 13.8158 7.77935 14.7265 8.26868C14.5038 8.64468 14.2585 9.11002 13.9638 9.66602L11.4532 14.4207C10.9758 15.322 10.7372 15.7727 10.3798 15.9393C10.1831 16.0309 9.964 16.0633 9.74917 16.0327C9.3625 15.9753 9.01584 15.61 8.3225 14.8807C7.42117 13.934 6.8225 13.3047 6.36517 13.0073C6.68517 12.618 6.87717 12.11 6.87717 11.554C6.87717 10.3287 5.93317 9.33268 4.7705 9.33268C3.6105 9.33268 2.6665 10.3273 2.6665 11.5553C2.6665 12.782 3.60917 13.7767 4.77184 13.7767H4.79717C4.72517 14.3367 4.81584 15.2273 4.95317 16.5753L5.2105 19.1007C5.35317 20.502 5.47184 21.8353 5.6185 23.0367H26.3812C26.5278 21.8367 26.6465 20.502 26.7892 19.1007ZM14.4732 29.3327H17.5265C21.5065 29.3327 23.4972 29.3327 24.8252 28.0793C25.4038 27.53 25.7718 26.5433 26.0358 25.258H5.96384C6.22784 26.5433 6.5945 27.53 7.1745 28.078C8.5025 29.3327 10.4932 29.3327 14.4732 29.3327Z" fill="#CE8946"/>
</svg>
