<svg width="32" height="32" viewBox="0 0 32 32" fill="none" xmlns="http://www.w3.org/2000/svg">
<path d="M21.3332 29.3327C19.1109 29.3327 17.2221 28.5549 15.6665 26.9993C14.1109 25.4438 13.3332 23.5549 13.3332 21.3327C13.3332 19.1105 14.1109 17.2216 15.6665 15.666C17.2221 14.1105 19.1109 13.3327 21.3332 13.3327C23.5554 13.3327 25.4443 14.1105 26.9998 15.666C28.5554 17.2216 29.3332 19.1105 29.3332 21.3327C29.3332 23.5549 28.5554 25.4438 26.9998 26.9993C25.4443 28.5549 23.5554 29.3327 21.3332 29.3327ZM21.3332 26.666C22.7998 26.666 24.0554 26.1438 25.0998 25.0994C26.1443 24.0549 26.6665 22.7993 26.6665 21.3327C26.6665 19.866 26.1443 18.6105 25.0998 17.566C24.0554 16.5216 22.7998 15.9993 21.3332 15.9993C19.8665 15.9993 18.6109 16.5216 17.5665 17.566C16.5221 18.6105 15.9998 19.866 15.9998 21.3327C15.9998 22.7993 16.5221 24.0549 17.5665 25.0994C18.6109 26.1438 19.8665 26.666 21.3332 26.666ZM2.6665 26.666V13.266L5.53317 6.66602H3.99984V2.66602H15.9998V6.66602H14.4665L16.6665 11.7327C16.2443 11.9549 15.8443 12.1882 15.4665 12.4327C15.0887 12.6771 14.7332 12.9549 14.3998 13.266L11.5998 6.66602H8.39984L5.33317 13.866V23.9993H10.9998C11.1109 24.466 11.2607 24.9273 11.4492 25.3833C11.6376 25.8393 11.8656 26.2669 12.1332 26.666H2.6665ZM21.3332 11.9993C20.3998 11.9993 19.6109 11.6771 18.9665 11.0327C18.3221 10.3882 17.9998 9.59935 17.9998 8.66602C17.9998 7.73268 18.3221 6.94379 18.9665 6.29935C19.6109 5.6549 20.3998 5.33268 21.3332 5.33268V11.9993ZM21.3332 11.9993C21.3332 11.066 21.6554 10.2771 22.2998 9.63268C22.9443 8.98824 23.7332 8.66602 24.6665 8.66602C25.5998 8.66602 26.3887 8.98824 27.0332 9.63268C27.6776 10.2771 27.9998 11.066 27.9998 11.9993H21.3332Z" fill="#0071DC"/>
</svg>
