<svg width="812" height="364" viewBox="0 0 812 364" fill="none" xmlns="http://www.w3.org/2000/svg">
<rect x="195.102" y="107.301" width="561.869" height="164.815" fill="#BABBBE"/>
<rect x="195.102" y="107.301" width="561.869" height="23.9731" fill="#002042"/>
<path fill-rule="evenodd" clip-rule="evenodd" d="M587.661 131.274H626.696H670.068V272.116H587.661V131.274Z" fill="#828489"/>
<path fill-rule="evenodd" clip-rule="evenodd" d="M282.005 131.274H322.459H367.409V272.116H282.005V131.274Z" fill="#828489"/>
<rect x="195.102" y="170.23" width="561.869" height="22.4747" fill="#FFC120"/>
<rect x="311.972" y="185.213" width="329.63" height="86.9023" fill="#1A7FE0"/>
<path fill-rule="evenodd" clip-rule="evenodd" d="M311.972 272.116H641.602L716.518 330.55H237.057L311.972 272.116Z" fill="#E6F1FC"/>
<rect x="311.972" y="177.722" width="329.63" height="34.4613" fill="#002042"/>
<rect x="195.104" y="272.116" width="569.36" height="13.4849" fill="#E6F1FC"/>
<rect x="410.861" y="197.2" width="128.855" height="74.9158" fill="#8ECBFF"/>
<rect x="443.823" y="222.671" width="65.9259" height="49.4444" fill="#00172C"/>
<rect x="410.86" y="219.675" width="130.354" height="4.49494" fill="#002042"/>
<rect x="409.362" y="197.2" width="131.852" height="4.49492" fill="#002042"/>
<rect x="409.362" y="197.2" width="4.49494" height="74.9158" fill="#002042"/>
<rect x="536.719" y="197.2" width="4.495" height="74.9158" fill="#002042"/>
<rect x="473.79" y="197.2" width="4.49496" height="74.9158" fill="#002042"/>
<rect x="442.325" y="197.2" width="4.49494" height="74.9158" fill="#002042"/>
<rect x="506.753" y="197.2" width="4.49494" height="74.9158" fill="#002042"/>
<rect x="311.972" y="177.722" width="329.63" height="7.49157" fill="#00172C"/>
<rect x="541.214" y="231.661" width="100.387" height="1.49829" fill="#F1F1F2"/>
<rect x="541.214" y="251.139" width="100.387" height="1.49833" fill="#F1F1F2"/>
<rect x="311.972" y="231.661" width="97.3906" height="1.49829" fill="#F1F1F2"/>
<rect x="311.972" y="251.139" width="97.3906" height="1.49833" fill="#F1F1F2"/>
<path fill-rule="evenodd" clip-rule="evenodd" d="M650.592 16.0472C650.592 16.0472 551.469 14.3903 466.345 31.8447C381.22 49.2991 299.986 87.9376 299.986 87.9376V111.796L314.969 123.782V134.271V161.24H299.986V179.22H650.592V161.24H635.609V98.311V48.8665H650.592V16.0472Z" fill="#338DE3"/>
<rect x="299.986" y="156.745" width="352.104" height="22.4747" fill="#FFC120"/>
<path fill-rule="evenodd" clip-rule="evenodd" d="M311.972 179.22H299.985L311.972 185.213V179.22Z" fill="#00172C"/>
<path fill-rule="evenodd" clip-rule="evenodd" d="M652.09 179.22L641.602 179.22V185.213L652.09 179.22Z" fill="#00172C"/>
<path fill-rule="evenodd" clip-rule="evenodd" d="M643.1 40.0184C643.1 40.0184 548.213 38.3827 466.726 55.6135C385.24 72.8444 307.477 110.988 307.477 110.988V156.745H643.1V40.0184Z" fill="#002042"/>
<path fill-rule="evenodd" clip-rule="evenodd" d="M299.986 126.779L307.478 122.284V135.769L299.986 126.779Z" fill="#00172C"/>
<path fill-rule="evenodd" clip-rule="evenodd" d="M650.592 56.3581L643.1 56.3581V69.8429L650.592 56.3581Z" fill="#00172C"/>
<path fill-rule="evenodd" clip-rule="evenodd" d="M466.344 51.1613C551.468 33.8838 650.591 35.5239 650.591 35.5239V56.8992C610.951 57.5799 533.975 60.8071 464.975 74.8208C398.856 88.2493 334.772 112.657 299.985 127.158V106.686C299.985 106.686 381.22 68.4388 466.344 51.1613Z" fill="#00172C"/>
<path fill-rule="evenodd" clip-rule="evenodd" d="M500.635 117.344C500.635 117.786 500.594 118.242 500.475 118.64C499.979 120.302 498.278 121.707 496.148 121.707C494.375 121.707 492.964 120.687 492.964 118.534C492.964 115.241 496.552 114.331 500.635 114.352V117.344ZM507.038 111.606C507.038 106.173 504.744 101.391 496.987 101.391C493.002 101.391 489.843 102.523 488.116 103.529L489.381 107.896C490.957 106.892 493.468 106.061 495.845 106.061C499.781 106.05 500.428 108.312 500.428 109.761V110.103C491.848 110.09 486.427 113.093 486.427 119.21C486.427 122.947 489.189 126.448 493.988 126.448C496.938 126.448 499.407 125.256 500.888 123.348H501.031C501.031 123.348 502.013 127.492 507.414 125.907C507.127 124.183 507.038 122.344 507.038 120.13V111.606Z" fill="white"/>
<path fill-rule="evenodd" clip-rule="evenodd" d="M373.403 93.9945C373.403 93.9945 379.006 117.214 379.9 120.982C380.944 125.381 382.826 127 388.25 125.906L391.748 111.512C392.637 107.935 393.231 105.387 393.801 101.75H393.9C394.302 105.423 394.873 107.948 395.602 111.524C395.602 111.524 397.026 118.058 397.756 121.491C398.488 124.922 400.523 127.084 405.835 125.906L414.175 93.9945H407.442L404.595 107.791C403.829 111.807 403.134 114.947 402.599 118.621H402.504C402.018 114.982 401.397 111.969 400.619 108.056L397.656 93.9945H390.643L387.47 107.702C386.574 111.868 385.731 115.229 385.199 118.779H385.102C384.554 115.437 383.824 111.21 383.036 107.179C383.036 107.179 381.153 97.3739 380.492 93.9945H373.403Z" fill="white"/>
<path fill-rule="evenodd" clip-rule="evenodd" d="M426.905 117.344C426.905 117.785 426.867 118.242 426.746 118.64C426.249 120.302 424.547 121.706 422.422 121.706C420.646 121.706 419.237 120.687 419.237 118.534C419.237 115.241 422.824 114.331 426.905 114.352V117.344ZM433.307 111.606C433.307 106.173 431.013 101.391 423.259 101.391C419.274 101.391 416.113 102.523 414.389 103.529L415.65 107.896C417.227 106.892 419.739 106.061 422.118 106.061C426.054 106.05 426.698 108.312 426.698 109.761V110.103C418.12 110.09 412.7 113.093 412.7 119.21C412.7 122.947 415.458 126.448 420.254 126.448C423.208 126.448 425.676 125.256 427.158 123.348H427.304C427.304 123.348 428.282 127.492 433.683 125.907C433.401 124.183 433.307 122.344 433.307 120.13V111.606Z" fill="white"/>
<path fill-rule="evenodd" clip-rule="evenodd" d="M443.992 119.132V93.9948H437.581V125.907H443.992V119.132Z" fill="white"/>
<path fill-rule="evenodd" clip-rule="evenodd" d="M527.859 93.9945V117.537C527.859 120.784 528.463 123.057 529.756 124.446C530.885 125.662 532.746 126.448 534.973 126.448C536.868 126.448 538.734 126.084 539.614 125.753L539.532 120.688C538.876 120.85 538.125 120.982 537.096 120.982C534.912 120.982 534.182 119.567 534.182 116.653V107.647H539.764V101.541H534.182V93.9945H527.859Z" fill="white"/>
<path fill-rule="evenodd" clip-rule="evenodd" d="M511.313 101.934V125.907H517.926V113.633C517.926 112.969 517.964 112.393 518.068 111.862C518.557 109.291 520.504 107.647 523.296 107.647C524.06 107.647 524.612 107.73 525.204 107.819V101.541C524.707 101.44 524.364 101.391 523.746 101.391C521.279 101.391 518.472 103.002 517.294 106.457H517.113V101.934H511.313Z" fill="white"/>
<path fill-rule="evenodd" clip-rule="evenodd" d="M448.48 101.934V125.907H454.925V111.847C454.925 111.189 455.002 110.492 455.229 109.885C455.761 108.471 457.063 106.815 459.143 106.815C461.744 106.815 462.96 109.036 462.96 112.244V125.907H469.395V111.678C469.395 111.048 469.482 110.29 469.667 109.734C470.195 108.125 471.599 106.815 473.532 106.815C476.169 106.815 477.434 108.998 477.434 112.771V125.907H483.873V111.787C483.873 104.341 480.136 101.391 475.914 101.391C474.042 101.391 472.567 101.866 471.234 102.694C470.113 103.391 469.109 104.377 468.23 105.68H468.134C467.115 103.098 464.72 101.391 461.6 101.391C457.592 101.391 455.787 103.447 454.693 105.191H454.598V101.934H448.48Z" fill="white"/>
<path fill-rule="evenodd" clip-rule="evenodd" d="M575.953 120.515C575.816 119.647 574.775 118.97 573.485 118.97C572.211 118.97 571.161 119.643 571.016 120.506L569.761 134.906C569.761 136.33 571.408 137.502 573.481 137.502C575.572 137.502 577.217 136.33 577.217 134.906L575.953 120.515Z" fill="#FFC120"/>
<path fill-rule="evenodd" clip-rule="evenodd" d="M565.725 117.354C566.401 116.802 566.458 115.55 565.812 114.421C565.175 113.305 564.078 112.723 563.265 113.029L550.298 119.129C549.081 119.838 548.903 121.867 549.94 123.683C550.986 125.512 552.807 126.366 554.028 125.656L565.725 117.354Z" fill="#FFC120"/>
<path fill-rule="evenodd" clip-rule="evenodd" d="M583.775 113.139C582.962 112.827 581.861 113.399 581.218 114.527C580.581 115.644 580.629 116.901 581.3 117.457L593.005 125.759C594.226 126.469 596.05 125.611 597.086 123.797C598.133 121.964 597.954 119.943 596.734 119.231L583.775 113.139Z" fill="#FFC120"/>
<path fill-rule="evenodd" clip-rule="evenodd" d="M576.07 99.4435C575.936 100.312 574.893 100.988 573.604 100.988C572.329 100.988 571.278 100.317 571.136 99.4525L569.879 85.0522C569.879 83.63 571.526 82.46 573.601 82.46C575.691 82.46 577.334 83.63 577.334 85.0522L576.07 99.4435Z" fill="#FFC120"/>
<path fill-rule="evenodd" clip-rule="evenodd" d="M583.835 106.92C583.021 107.235 581.922 106.664 581.276 105.531C580.641 104.416 580.692 103.161 581.358 102.603L593.066 94.3031C594.286 93.5926 596.109 94.4495 597.146 96.2648C598.193 98.0946 598.013 100.118 596.795 100.831L583.835 106.92Z" fill="#FFC120"/>
<path fill-rule="evenodd" clip-rule="evenodd" d="M565.784 102.502C566.459 103.057 566.517 104.307 565.872 105.435C565.233 106.55 564.133 107.135 563.323 106.827L550.357 100.727C549.14 100.016 548.961 97.9906 549.998 96.1753C551.045 94.3432 552.868 93.4896 554.084 94.2002L565.784 102.502Z" fill="#FFC120"/>
<path d="M385.388 253.646C385.388 252.262 386.51 251.139 387.895 251.139H390.372C391.757 251.139 392.879 252.262 392.879 253.646V300.584H385.388V253.646Z" fill="#FFC220"/>
<path d="M556.197 253.646C556.197 252.262 557.32 251.139 558.704 251.139H561.182C562.566 251.139 563.689 252.262 563.689 253.646V300.584H556.197V253.646Z" fill="#FFC220"/>
<rect x="661.078" y="222.671" width="26.9697" height="49.4444" fill="#00172C"/>
<rect x="207.088" y="192.705" width="74.9158" height="49.4444" fill="#9E9FA3"/>
<path d="M811.675 57.6914C811.675 97.4963 756.604 150.752 756.604 150.752C756.604 150.752 701.533 99.0662 701.533 57.6914C701.533 22.4542 726.189 0.92041 756.604 0.92041C787.019 0.92041 811.675 22.4542 811.675 57.6914Z" fill="#0071DC"/>
<ellipse cx="756.606" cy="56.1214" rx="33.4358" ry="33.515" fill="white"/>
<path fill-rule="evenodd" clip-rule="evenodd" d="M752.121 69.2559C751.663 69.2559 751.205 69.0873 750.847 68.75L744.429 62.6848C743.685 61.9806 743.652 60.8076 744.356 60.0645C745.059 59.3214 746.233 59.2899 746.976 59.9904L752.119 64.8511L770.369 47.5282C771.108 46.824 772.282 46.8518 772.988 47.5967C773.695 48.338 773.663 49.511 772.922 50.2152L753.397 68.7463C753.041 69.0854 752.581 69.2559 752.121 69.2559" fill="#002242"/>
<path fill-rule="evenodd" clip-rule="evenodd" d="M127.452 15.9036C152.451 15.9036 172.717 36.1696 172.717 61.169V158.003H82.1865V61.169C82.1865 36.1696 102.453 15.9036 127.452 15.9036Z" fill="#00172C"/>
<path fill-rule="evenodd" clip-rule="evenodd" d="M127.451 29.7375C143.59 29.7375 156.673 42.8207 156.673 58.9595V89.9005C156.673 106.039 143.59 119.122 127.451 119.122C111.313 119.122 98.2295 106.039 98.2295 89.9005V58.9595C98.2295 42.8207 111.313 29.7375 127.451 29.7375Z" fill="#CD8B52"/>
<path d="M111.353 81.9892C113.178 81.9892 114.657 80.5098 114.657 78.6849C114.657 76.86 113.178 75.3806 111.353 75.3806C109.528 75.3806 108.049 76.86 108.049 78.6849C108.049 80.5098 109.528 81.9892 111.353 81.9892Z" fill="#002042"/>
<path d="M141.091 81.9892C142.916 81.9892 144.396 80.5098 144.396 78.6849C144.396 76.86 142.916 75.3806 141.091 75.3806C139.266 75.3806 137.787 76.86 137.787 78.6849C137.787 80.5098 139.266 81.9892 141.091 81.9892Z" fill="#002042"/>
<path d="M157.82 70.9921H154.383C150.585 70.9921 147.507 74.0705 147.507 77.8678V81.3057C147.507 85.1031 150.585 88.1815 154.383 88.1815H157.82C161.618 88.1815 164.696 85.1031 164.696 81.3057V77.8678C164.696 74.0705 161.618 70.9921 157.82 70.9921Z" fill="#CD8B52"/>
<path d="M100.523 70.9921H97.0848C93.2874 70.9921 90.209 74.0705 90.209 77.8678V81.3057C90.209 85.1031 93.2874 88.1815 97.0848 88.1815H100.523C104.32 88.1815 107.398 85.1031 107.398 81.3057V77.8678C107.398 74.0705 104.32 70.9921 100.523 70.9921Z" fill="#CD8B52"/>
<path fill-rule="evenodd" clip-rule="evenodd" d="M98.2303 29.5727L126.879 19.259L156.674 29.5727L160.112 38.7404L156.674 44.5887C148.352 46.8851 139.566 51.2319 130.317 57.629C121.069 64.0261 110.373 68.8075 98.2303 71.9732L93.6465 50.2L98.2303 29.5727Z" fill="#00172C"/>
<mask id="mask0_3380_41639" style="mask-type:alpha" maskUnits="userSpaceOnUse" x="35" y="101" width="187" height="267">
<path d="M146.36 103.161C145.596 111.903 145.214 119.04 145.214 124.574C145.214 134.752 161.151 144.527 193.026 153.898C206.992 158.004 216.858 170.461 217.656 184.997L221.875 261.873L201.606 262.834H189.734L180.237 336.439L156.493 367.305H97.135L73.3917 336.439L66.2687 262.834L35.4023 261.873L45.0351 180.39C46.6532 166.702 56.2896 155.304 69.5174 151.432C96.2986 143.592 109.689 134.811 109.689 125.091C109.689 119.584 109.307 111.865 108.543 101.933L146.36 103.161Z" fill="white"/>
</mask>
<g mask="url(#mask0_3380_41639)">
<path d="M146.36 103.161C145.596 111.903 145.214 119.04 145.214 124.574C145.214 134.752 161.151 144.527 193.026 153.898C206.992 158.004 216.858 170.461 217.656 184.997L221.875 261.873L201.606 262.834H189.734L180.237 336.439L156.493 367.305H97.135L73.3917 336.439L66.2687 262.834L35.4023 261.873L45.0351 180.39C46.6532 166.702 56.2896 155.304 69.5174 151.432C96.2986 143.592 109.689 134.811 109.689 125.091C109.689 119.584 109.307 111.865 108.543 101.933L146.36 103.161Z" fill="#CD8B52"/>
<path fill-rule="evenodd" clip-rule="evenodd" d="M77.3654 131.439C89.7339 149.184 106.62 157.955 128.024 157.753C149.428 157.551 165.932 148.78 177.537 131.439L220.736 159.856L221.875 262.079L189.733 265.141L182.61 336.439L158.867 364.931H99.5087L73.391 336.439L66.268 265.141L33.0273 262.079L47.8067 152.277L77.3654 131.439Z" fill="#031D43"/>
<path fill-rule="evenodd" clip-rule="evenodd" d="M90.6669 131.586C104.403 201.718 112.516 246.795 115.005 266.817C117.493 286.84 117.868 327.459 116.129 388.674L54.3965 381.551L66.2681 269.957C69.4339 262.043 71.0168 255.711 71.0168 250.963C71.0168 246.214 70.9161 208.146 70.7148 136.759L90.6669 131.586Z" fill="#0071DC"/>
<path fill-rule="evenodd" clip-rule="evenodd" d="M86.4369 184.605C85.5874 184.605 84.9128 185.075 84.9128 185.644L85.4375 191.446C85.4875 191.793 85.9247 192.065 86.4369 192.065C86.9616 192.065 87.3989 191.793 87.4614 191.446L87.9736 185.644C87.9736 185.075 87.299 184.605 86.4369 184.605ZM78.4289 189.356C77.9292 189.071 77.1796 189.418 76.7548 190.147C76.3176 190.877 76.3925 191.694 76.9047 191.978L82.2268 194.44C82.5641 194.552 83.0138 194.317 83.2762 193.871C83.5385 193.426 83.5136 192.919 83.2387 192.696L78.4289 189.356ZM95.9941 191.978C96.4938 191.694 96.5688 190.877 96.144 190.147C95.7068 189.418 94.9572 189.071 94.4575 189.356L89.6476 192.696C89.3728 192.919 89.3478 193.426 89.6102 193.871C89.8725 194.317 90.3223 194.552 90.6596 194.44L95.9941 191.978ZM76.9047 199.389C76.3925 199.686 76.3176 200.502 76.7548 201.232C77.1796 201.962 77.9292 202.308 78.4289 202.024L83.2387 198.684C83.5136 198.448 83.5385 197.941 83.2762 197.496C83.0138 197.051 82.5641 196.815 82.2268 196.939L76.9047 199.389ZM90.6596 196.939C90.3223 196.815 89.8725 197.051 89.6102 197.496C89.3478 197.941 89.3728 198.448 89.6476 198.684L94.4575 202.024C94.9572 202.308 95.7068 201.962 96.144 201.232C96.5688 200.502 96.4938 199.686 95.9941 199.389L90.6596 196.939ZM86.4494 199.314C85.9247 199.314 85.4875 199.574 85.4375 199.921L84.9128 205.723C84.9128 206.304 85.5874 206.774 86.4369 206.774C87.299 206.774 87.9736 206.304 87.9736 205.723L87.4614 199.921C87.3989 199.574 86.9616 199.314 86.4494 199.314Z" fill="#FEBC11"/>
<path d="M95.6826 211.71H77.2084C76.3922 211.71 75.7305 212.371 75.7305 213.187V218.36C75.7305 219.176 76.3922 219.838 77.2084 219.838H95.6826C96.4988 219.838 97.1605 219.176 97.1605 218.36V213.187C97.1605 212.371 96.4988 211.71 95.6826 211.71Z" fill="#D5D6D8"/>
<path fill-rule="evenodd" clip-rule="evenodd" d="M164.564 131.586C153.504 201.199 146.974 246.276 144.974 266.817C142.975 287.358 142.857 310.565 144.621 336.439L146.995 388.674H199.231L189.733 269.957C186.568 263.626 184.881 257.039 184.673 250.197C184.465 243.355 184.413 205.542 184.516 136.759L164.564 131.586Z" fill="#0071DC"/>
</g>
<mask id="mask1_3380_41639" style="mask-type:alpha" maskUnits="userSpaceOnUse" x="51" y="317" width="153" height="447">
<path d="M71.018 317.444L100.13 355.64C110.391 359.094 120.473 360.608 130.376 360.182C140.279 359.755 150.173 357.381 160.055 353.059L182.612 317.444C196.858 385.508 203.981 436.952 203.981 471.776C203.981 506.599 196.066 603.947 180.237 763.818H156.494L135.125 457.53H128.002L109.007 763.818H82.8896C63.0805 600.821 52.7918 503.474 52.0233 471.776C51.2549 440.077 57.5864 388.633 71.018 317.444Z" fill="white"/>
</mask>
<g mask="url(#mask1_3380_41639)">
<path d="M71.018 317.444L100.13 355.64C110.391 359.094 120.473 360.608 130.376 360.182C140.279 359.755 150.173 357.381 160.055 353.059L182.612 317.444C196.858 385.508 203.981 436.952 203.981 471.776C203.981 506.599 196.066 603.947 180.237 763.818H156.494L135.125 457.53H128.002L109.007 763.818H82.8896C63.0805 600.821 52.7918 503.474 52.0233 471.776C51.2549 440.077 57.5864 388.633 71.018 317.444Z" fill="#686868"/>
<path fill-rule="evenodd" clip-rule="evenodd" d="M90.6669 141.743C104.403 211.875 112.516 256.952 115.005 276.974C117.493 296.997 117.868 337.615 116.129 398.831L54.3965 391.708L66.2682 280.114C69.4339 272.2 71.0168 265.868 71.0168 261.12C71.0168 256.371 70.9161 218.303 70.7148 146.916L90.6669 141.743Z" fill="#0071DC"/>
<path fill-rule="evenodd" clip-rule="evenodd" d="M164.565 136.995C153.505 206.608 146.975 251.685 144.975 272.226C142.976 292.766 142.858 315.974 144.622 341.847L146.996 398.831L199.232 394.082L189.734 275.366C186.569 269.034 184.882 262.447 184.674 255.605C184.466 248.763 184.414 210.951 184.517 142.167L164.565 136.995Z" fill="#0071DC"/>
</g>
<path fill-rule="evenodd" clip-rule="evenodd" d="M117.961 98.5106C120.715 98.9841 123.468 99.2208 126.222 99.2208C128.975 99.2208 131.729 98.9841 134.482 98.5106V102.134C131.729 105.023 128.975 106.468 126.222 106.468C123.468 106.468 120.715 105.023 117.961 102.134V98.5106Z" fill="#9D4000"/>
<path fill-rule="evenodd" clip-rule="evenodd" d="M47.1367 324.994L11.9209 317.042V271.603L17.6009 182.995H119.84L130.064 271.603L126.656 313.634L47.1367 324.994Z" fill="#0071DC"/>
<path fill-rule="evenodd" clip-rule="evenodd" d="M98.946 183.801C98.946 204.687 83.4336 221.619 64.2982 221.619C45.1627 221.619 29.6504 204.687 29.6504 183.801C29.6504 183.532 29.653 183.263 29.6581 182.996L35.1596 182.995C35.1532 183.263 35.15 183.531 35.15 183.801C35.15 201.04 48.2001 215.016 64.2982 215.016C80.3963 215.016 93.4464 201.04 93.4464 183.801C93.4464 183.531 93.4432 183.263 93.4368 182.995L98.9383 182.996C98.9434 183.263 98.946 183.532 98.946 183.801Z" fill="#0056A8"/>
<path fill-rule="evenodd" clip-rule="evenodd" d="M94.4021 183.706C94.4021 202.135 78.8897 217.075 59.7543 217.075C40.6188 217.075 25.1064 202.135 25.1064 183.706C25.1064 183.468 25.109 183.232 25.1141 182.996L30.6156 182.995C30.6093 183.231 30.6061 183.468 30.6061 183.706C30.6061 198.917 43.6562 211.249 59.7543 211.249C75.8523 211.249 88.9024 198.917 88.9024 183.706C88.9024 183.468 88.8992 183.231 88.8929 182.995L94.3944 182.996C94.3995 183.232 94.4021 183.468 94.4021 183.706Z" fill="#0071DC"/>
<path fill-rule="evenodd" clip-rule="evenodd" d="M67.6849 225.027C65.7695 225.027 64.2484 226.096 64.2484 227.391L65.4315 240.592C65.5441 241.38 66.53 241.999 67.6849 241.999C68.8679 241.999 69.8538 241.38 69.9946 240.592L71.1495 227.391C71.1495 226.096 69.6284 225.027 67.6849 225.027ZM49.6294 235.835C48.5027 235.188 46.8127 235.976 45.855 237.636C44.8691 239.297 45.0381 241.155 46.193 241.802L58.1924 247.403C58.9529 247.656 59.9669 247.122 60.5585 246.108C61.15 245.095 61.0937 243.941 60.474 243.435L49.6294 235.835ZM89.2331 241.802C90.3598 241.155 90.5288 239.297 89.5711 237.636C88.5853 235.976 86.8952 235.188 85.7685 235.835L74.924 243.435C74.3043 243.941 74.2479 245.095 74.8395 246.108C75.431 247.122 76.445 247.656 77.2055 247.403L89.2331 241.802ZM46.193 258.662C45.0381 259.337 44.8691 261.195 45.855 262.855C46.8127 264.516 48.5027 265.304 49.6294 264.657L60.474 257.057C61.0937 256.523 61.15 255.369 60.5585 254.355C59.9669 253.342 58.9529 252.807 58.1924 253.089L46.193 258.662ZM77.2055 253.089C76.445 252.807 75.431 253.342 74.8395 254.355C74.2479 255.369 74.3043 256.523 74.924 257.057L85.7685 264.657C86.8952 265.304 88.5853 264.516 89.5711 262.855C90.5288 261.195 90.3598 259.337 89.2331 258.662L77.2055 253.089ZM67.713 258.493C66.53 258.493 65.5441 259.084 65.4315 259.872L64.2484 273.073C64.2484 274.395 65.7695 275.465 67.6849 275.465C69.6284 275.465 71.1495 274.395 71.1495 273.073L69.9946 259.872C69.8538 259.084 68.8679 258.493 67.713 258.493Z" fill="#FEBC11"/>
<path fill-rule="evenodd" clip-rule="evenodd" d="M110.477 187.421H116.602L125.791 270.117L125.52 301.138L114.16 307.954L113.539 270.117L110.477 187.421Z" fill="#0056A8"/>
<path fill-rule="evenodd" clip-rule="evenodd" d="M11.9199 271.603C16.3678 272.654 20.6336 273.18 24.7174 273.18C28.8011 273.18 34.5783 269.585 42.049 262.395C44.0629 264.5 44.4113 267.074 43.0942 270.117C41.7772 273.16 39.0705 276.034 34.9743 278.74C36.4046 280.752 38.0903 281.962 40.0314 282.368C55.5405 285.618 68.9312 286.624 71.4763 288.879C76.0108 292.896 67.9701 296.432 55.3455 300.745C42.7209 305.058 34.1229 303.796 27.7802 303.808C21.4374 303.82 18.5917 303.808 9.40328 300.745C0.214844 297.682 0.214844 294.62 0.214844 285.431C0.214844 279.306 4.11655 274.696 11.9199 271.603Z" fill="#CD8B52"/>
<path d="M187.046 260.929C187.046 267.054 187.046 269.096 187.046 267.054L112.758 310.537C105.111 308.093 99.2457 306.871 95.1619 306.871C91.0782 306.871 83.2109 303.188 71.5601 295.823C70.3505 298.914 70.3505 301.857 71.5601 304.651C72.7697 307.446 75.128 309.952 78.6348 312.168C76.2916 316.101 73.6331 318.419 70.6594 319.122C59.2986 321.807 45.0573 320.446 43.0941 322.185C40.3601 324.607 43.9633 328.572 53.9037 334.079C64.6215 337.856 76.3324 338.996 89.0363 337.499C108.092 335.254 120.445 328.428 128.853 325.248C134.458 323.128 165.086 313.939 220.737 297.682C220.737 281.347 220.737 269.096 220.737 260.929C220.737 248.677 187.046 251.74 187.046 260.929Z" fill="#CD8B52"/>
</svg>

