<svg width="32" height="32" viewBox="0 0 32 32" fill="none" xmlns="http://www.w3.org/2000/svg">
<path fill-rule="evenodd" clip-rule="evenodd" d="M22 30C24.1217 30 26.1566 29.1571 27.6569 27.6569C29.1571 26.1566 30 24.1217 30 22C30 19.8783 29.1571 17.8434 27.6569 16.3431C26.1566 14.8429 24.1217 14 22 14C19.8783 14 17.8434 14.8429 16.3431 16.3431C14.8429 17.8434 14 19.8783 14 22C14 24.1217 14.8429 26.1566 16.3431 27.6569C17.8434 29.1571 19.8783 30 22 30ZM32 22C32 24.6522 30.9464 27.1957 29.0711 29.0711C27.1957 30.9464 24.6522 32 22 32C19.3478 32 16.8043 30.9464 14.9289 29.0711C13.0536 27.1957 12 24.6522 12 22C12 19.3478 13.0536 16.8043 14.9289 14.9289C16.8043 13.0536 19.3478 12 22 12C24.6522 12 27.1957 13.0536 29.0711 14.9289C30.9464 16.8043 32 19.3478 32 22Z" fill="#0071DC"/>
<path d="M18.876 23.888C18.97 25.08 19.912 26.008 21.602 26.12V27H22.352V26.114C24.102 25.992 25.124 25.056 25.124 23.7C25.124 22.464 24.344 21.828 22.944 21.5L22.352 21.36V18.96C23.104 19.046 23.58 19.456 23.694 20.024H25.01C24.916 18.874 23.93 17.976 22.352 17.878V17H21.602V17.9C20.108 18.046 19.092 18.944 19.092 20.216C19.092 21.34 19.848 22.056 21.106 22.348L21.602 22.47V25.014C20.834 24.898 20.324 24.474 20.21 23.888H18.876ZM21.596 21.18C20.858 21.01 20.458 20.66 20.458 20.136C20.458 19.548 20.89 19.108 21.602 18.98V21.18H21.596ZM22.46 22.672C23.358 22.88 23.77 23.216 23.77 23.81C23.77 24.488 23.256 24.952 22.352 25.038V22.648L22.46 22.672Z" fill="#0071DC"/>
<path d="M2 0C1.46957 0 0.960859 0.210714 0.585786 0.585786C0.210714 0.960859 0 1.46957 0 2L0 18C0 18.5304 0.210714 19.0391 0.585786 19.4142C0.960859 19.7893 1.46957 20 2 20H10.166C10.2833 19.3107 10.4553 18.644 10.682 18H6C6 16.9391 5.57857 15.9217 4.82843 15.1716C4.07828 14.4214 3.06087 14 2 14V6C3.06087 6 4.07828 5.57857 4.82843 4.82843C5.57857 4.07828 6 3.06087 6 2H26C26 3.06087 26.4214 4.07828 27.1716 4.82843C27.9217 5.57857 28.9391 6 30 6V13.056C30.76 13.736 31.434 14.512 32 15.364V2C32 1.46957 31.7893 0.960859 31.4142 0.585786C31.0391 0.210714 30.5304 0 30 0L2 0Z" fill="#0071DC"/>
<path d="M19.996 10.1656L20 9.99957C19.9996 9.31076 19.8213 8.63372 19.4824 8.03403C19.1435 7.43434 18.6555 6.93233 18.0657 6.57661C17.4758 6.22089 16.8041 6.02352 16.1156 6.00362C15.427 5.98372 14.745 6.14196 14.1356 6.46302C13.5262 6.78407 13.01 7.25706 12.6371 7.83617C12.2641 8.41529 12.047 9.0809 12.0068 9.76854C11.9666 10.4562 12.1047 11.1426 12.4076 11.7612C12.7106 12.3798 13.1681 12.9097 13.736 13.2996C15.4648 11.6559 17.6442 10.5648 19.996 10.1656Z" fill="#0071DC"/>
</svg>
