<svg width="32" height="32" viewBox="0 0 32 32" fill="none" xmlns="http://www.w3.org/2000/svg">
<path d="M11.3464 10.3653L14.3864 4.20128C14.5333 3.89889 14.7629 3.64429 15.0486 3.46696C15.3342 3.28963 15.6642 3.19683 16.0004 3.19928C16.3369 3.19645 16.6674 3.28908 16.9534 3.46643C17.2394 3.64378 17.4693 3.89858 17.6164 4.20128L20.6584 10.3653L27.4604 11.3553C27.7929 11.4032 28.1054 11.5433 28.3625 11.7596C28.6195 11.976 28.8109 12.2599 28.9149 12.5794C29.019 12.8988 29.0316 13.241 28.9512 13.5672C28.8709 13.8934 28.7009 14.1907 28.4604 14.4253L23.5364 19.2233L24.6984 25.9973C24.7553 26.3284 24.7184 26.6688 24.5919 26.9801C24.4654 27.2913 24.2543 27.5609 23.9825 27.7584C23.7108 27.9559 23.3891 28.0734 23.054 28.0976C22.7189 28.1218 22.3837 28.0517 22.0864 27.8953L16.0024 24.6953L9.9184 27.8953C9.62107 28.0517 9.28589 28.1218 8.95079 28.0976C8.6157 28.0734 8.29406 27.9559 8.02227 27.7584C7.75048 27.5609 7.53938 27.2913 7.41287 26.9801C7.28636 26.6688 7.24948 26.3284 7.3064 25.9973L8.4664 19.2233L3.5464 14.4233C3.30654 14.1887 3.13701 13.8918 3.05692 13.566C2.97684 13.2402 2.98939 12.8986 3.09317 12.5795C3.19695 12.2605 3.38782 11.9768 3.64425 11.7605C3.90067 11.5442 4.21245 11.4038 4.5444 11.3553L11.3464 10.3653ZM16.0004 22.6713C16.2884 22.6713 16.5764 22.7393 16.8404 22.8773L22.6604 25.9373L21.5484 19.4573C21.4987 19.1697 21.5197 18.8743 21.6096 18.5966C21.6995 18.3189 21.8556 18.0672 22.0644 17.8633L26.7724 13.2753L20.2664 12.3293C19.9779 12.2872 19.7039 12.1756 19.4681 12.0042C19.2322 11.8328 19.0415 11.6067 18.9124 11.3453L16.0004 5.45128V5.45528V22.6713Z" fill="#FFC220"/>
</svg>
