<svg width="32" height="32" viewBox="0 0 32 32" fill="none" xmlns="http://www.w3.org/2000/svg">
<path fill-rule="evenodd" clip-rule="evenodd" d="M11.555 15.8355C15.235 12.1438 18.8318 8.54162 22.3454 5.02909C22.5293 4.83575 22.6319 4.57912 22.6319 4.31229C22.6319 4.04545 22.5293 3.78882 22.3454 3.59549C21.8478 3.04189 21.0606 3.08989 20.7022 3.46749C17.0606 7.11869 13.251 10.9347 9.2734 14.9155C8.95767 15.1747 8.7998 15.4808 8.7998 15.8339C8.7998 16.187 8.95767 16.5027 9.2734 16.7811L21.2462 28.4707C21.4761 28.6816 21.779 28.7947 22.0908 28.786C22.4026 28.7774 22.6988 28.6476 22.9166 28.4243C23.4894 27.8499 23.2686 27.2835 23.0094 27.0147C19.1853 23.2934 15.3666 19.5664 11.5534 15.8339" fill="#004F9A"/>
</svg>
