<svg width="32" height="32" viewBox="0 0 32 32" fill="none" xmlns="http://www.w3.org/2000/svg">
<path d="M5.3335 15.9993C5.3335 16.1762 5.40373 16.3457 5.52876 16.4708C5.65378 16.5958 5.82335 16.666 6.00016 16.666H17.7242L14.1948 20.194C14.1328 20.2559 14.0837 20.3294 14.0501 20.4103C14.0165 20.4912 13.9992 20.5779 13.9991 20.6655C13.999 20.8425 14.0692 21.0122 14.1942 21.1373C14.3192 21.2625 14.4888 21.3329 14.6657 21.3331C14.8426 21.3332 15.0123 21.263 15.1375 21.138L19.8042 16.4713C19.9291 16.3463 19.9994 16.1768 19.9994 16C19.9994 15.8232 19.9291 15.6537 19.8042 15.5287L15.1375 10.862C15.0118 10.7406 14.8434 10.6734 14.6686 10.6749C14.4938 10.6764 14.3266 10.7465 14.203 10.8701C14.0793 10.9937 14.0092 11.161 14.0077 11.3357C14.0062 11.5105 14.0734 11.6789 14.1948 11.8047L17.7242 15.3327H6.00016C5.82335 15.3327 5.65378 15.4029 5.52876 15.5279C5.40373 15.653 5.3335 15.8225 5.3335 15.9993ZM23.3335 2.66602H8.66683C7.78277 2.66602 6.93493 3.01721 6.30981 3.64233C5.68469 4.26745 5.3335 5.11529 5.3335 5.99935V11.3327C5.3335 11.5095 5.40373 11.6791 5.52876 11.8041C5.65378 11.9291 5.82335 11.9993 6.00016 11.9993C6.17697 11.9993 6.34654 11.9291 6.47157 11.8041C6.59659 11.6791 6.66683 11.5095 6.66683 11.3327V5.99935C6.66683 5.46892 6.87754 4.96021 7.25262 4.58514C7.62769 4.21006 8.1364 3.99935 8.66683 3.99935H23.3335C23.8639 3.99935 24.3726 4.21006 24.7477 4.58514C25.1228 4.96021 25.3335 5.46892 25.3335 5.99935V25.9993C25.3335 26.5298 25.1228 27.0385 24.7477 27.4136C24.3726 27.7886 23.8639 27.9993 23.3335 27.9993H8.66683C8.1364 27.9993 7.62769 27.7886 7.25262 27.4136C6.87754 27.0385 6.66683 26.5298 6.66683 25.9993V20.666C6.66683 20.4892 6.59659 20.3196 6.47157 20.1946C6.34654 20.0696 6.17697 19.9993 6.00016 19.9993C5.82335 19.9993 5.65378 20.0696 5.52876 20.1946C5.40373 20.3196 5.3335 20.4892 5.3335 20.666V25.9993C5.3335 26.8834 5.68469 27.7313 6.30981 28.3564C6.93493 28.9815 7.78277 29.3327 8.66683 29.3327H23.3335C24.2176 29.3327 25.0654 28.9815 25.6905 28.3564C26.3156 27.7313 26.6668 26.8834 26.6668 25.9993V5.99935C26.6668 5.11529 26.3156 4.26745 25.6905 3.64233C25.0654 3.01721 24.2176 2.66602 23.3335 2.66602Z" fill="#2E2F32"/>
</svg>
