<svg width="37" height="36" viewBox="0 0 37 36" fill="none" xmlns="http://www.w3.org/2000/svg">
<path d="M18.0096 2.23158C17.3856 2.23158 16.8696 2.37558 16.4616 2.66358C16.0536 2.95158 15.8496 3.31158 15.8496 3.74358L16.5696 11.9516C16.6176 12.1916 16.7736 12.3956 17.0376 12.5636C17.3016 12.7316 17.6256 12.8156 18.0096 12.8156C18.3936 12.8156 18.7176 12.7316 18.9816 12.5636C19.2456 12.3956 19.4016 12.1916 19.4496 11.9516L20.1696 3.74358C20.1696 3.31158 19.9536 2.95158 19.5216 2.66358C19.0896 2.37558 18.5856 2.23158 18.0096 2.23158ZM6.70556 8.99958C6.36956 8.80758 5.97356 8.81958 5.51756 9.03558C5.06156 9.25158 4.67756 9.61158 4.36556 10.1156C4.05356 10.6196 3.92156 11.1356 3.96956 11.6636C4.01756 12.1916 4.23356 12.5516 4.61756 12.7436L12.1056 16.1996C12.3456 16.2956 12.5976 16.2716 12.8616 16.1276C13.1256 15.9836 13.3536 15.7556 13.5456 15.4436C13.7376 15.1316 13.8216 14.8076 13.7976 14.4716C13.7736 14.1356 13.6656 13.8956 13.4736 13.7516L6.70556 8.99958ZM31.4736 12.7436C31.8096 12.5516 32.0016 12.1916 32.0496 11.6636C32.0976 11.1356 31.9656 10.6196 31.6536 10.1156C31.3416 9.61158 30.9576 9.25158 30.5016 9.03558C30.0456 8.81958 29.6496 8.80758 29.3136 8.99958L22.5456 13.7516C22.3536 13.8956 22.2456 14.1356 22.2216 14.4716C22.1976 14.8076 22.2816 15.1316 22.4736 15.4436C22.6656 15.7556 22.8936 15.9836 23.1576 16.1276C23.4216 16.2716 23.6736 16.2956 23.9136 16.1996L31.4736 12.7436ZM4.61756 23.2556C4.23356 23.4476 4.01756 23.8076 3.96956 24.3356C3.92156 24.8636 4.05356 25.3796 4.36556 25.8836C4.67756 26.3876 5.06156 26.7476 5.51756 26.9636C5.97356 27.1796 6.36956 27.1916 6.70556 26.9996L13.4736 22.2476C13.6656 22.1036 13.7736 21.8636 13.7976 21.5276C13.8216 21.1916 13.7376 20.8676 13.5456 20.5556C13.3536 20.2436 13.1256 20.0156 12.8616 19.8716C12.5976 19.7276 12.3456 19.7036 12.1056 19.7996L4.61756 23.2556ZM23.9136 19.7996C23.6736 19.7036 23.4216 19.7276 23.1576 19.8716C22.8936 20.0156 22.6656 20.2436 22.4736 20.5556C22.2816 20.8676 22.1976 21.1916 22.2216 21.5276C22.2456 21.8636 22.3536 22.1036 22.5456 22.2476L29.3136 26.9996C29.6496 27.1916 30.0456 27.1796 30.5016 26.9636C30.9576 26.7476 31.3416 26.3876 31.6536 25.8836C31.9656 25.3796 32.0976 24.8636 32.0496 24.3356C32.0016 23.8076 31.8096 23.4476 31.4736 23.2556L23.9136 19.7996ZM18.0096 23.1836C17.6256 23.1836 17.3016 23.2556 17.0376 23.3996C16.7736 23.5436 16.6176 23.7356 16.5696 23.9756L15.8496 32.2556C15.8496 32.6876 16.0536 33.0476 16.4616 33.3356C16.8696 33.6236 17.3736 33.7676 17.9736 33.7676C18.5736 33.7676 19.0896 33.6236 19.5216 33.3356C19.9536 33.0476 20.1696 32.6876 20.1696 32.2556L19.4496 23.9756C19.4016 23.7356 19.2456 23.5436 18.9816 23.3996C18.7176 23.2556 18.3936 23.1836 18.0096 23.1836Z" fill="#FFC220"/>
</svg>
