<svg width="32" height="32" viewBox="0 0 32 32" fill="none" xmlns="http://www.w3.org/2000/svg">
<path d="M14 24.0156V14.625L4 9.625V23.375L12.5 27.6406L12.0156 29.625L2 24.625V7.375L15 0.890625L28 7.375V11.5938C27.2708 11.7083 26.6042 11.9427 26 12.2969V9.625L16 14.625V22.0156L14 24.0156ZM11.7812 4.71875L20.9062 9.9375L24.7656 8L15 3.10938L11.7812 4.71875ZM15 12.8906L18.75 11.0156L9.625 5.79688L5.23438 8L15 12.8906ZM28.875 14C29.3125 14 29.7188 14.0781 30.0938 14.2344C30.4688 14.3906 30.8021 14.6042 31.0938 14.875C31.3854 15.1458 31.6042 15.474 31.75 15.8594C31.8958 16.2448 31.9792 16.6562 32 17.0938C32 17.5 31.9219 17.8958 31.7656 18.2812C31.6094 18.6667 31.3854 19.0052 31.0938 19.2969L19.8906 30.5L14 31.9688L15.4688 26.0781L26.6719 14.8906C26.974 14.5885 27.3125 14.3646 27.6875 14.2188C28.0625 14.0729 28.4583 14 28.875 14ZM29.6719 17.8906C29.8906 17.6719 30 17.4062 30 17.0938C30 16.7708 29.8958 16.5104 29.6875 16.3125C29.4792 16.1146 29.2083 16.0104 28.875 16C28.7292 16 28.5885 16.0208 28.4531 16.0625C28.3177 16.1042 28.1979 16.1823 28.0938 16.2969L17.2812 27.1094L16.75 29.2188L18.8594 28.6875L29.6719 17.8906Z" fill="#2E2F32"/>
</svg>
