<svg width="26" height="27" viewBox="0 0 26 27" fill="none" xmlns="http://www.w3.org/2000/svg">
<path fill-rule="evenodd" clip-rule="evenodd" d="M19 13C17.1435 13 15.363 13.7375 14.0503 15.0503C12.7375 16.363 12 18.1435 12 20C12 21.8565 12.7375 23.637 14.0503 24.9497C15.363 26.2625 17.1435 27 19 27C20.8565 27 22.637 26.2625 23.9497 24.9497C25.2625 23.637 26 21.8565 26 20C26 18.1435 25.2625 16.363 23.9497 15.0503C22.637 13.7375 20.8565 13 19 13ZM20 20V16H18V20H20ZM19 21C18.6022 21 18.2206 21.158 17.9393 21.4393C17.658 21.7206 17.5 22.1022 17.5 22.5C17.5 22.8978 17.658 23.2794 17.9393 23.5607C18.2206 23.842 18.6022 24 19 24C19.3978 24 19.7794 23.842 20.0607 23.5607C20.342 23.2794 20.5 22.8978 20.5 22.5C20.5 22.1022 20.342 21.7206 20.0607 21.4393C19.7794 21.158 19.3978 21 19 21Z" fill="#F24822"/>
<path d="M4 8.66601H20V5.99935H4V8.66601ZM0 25.9993V3.33268C0 2.59935 0.261333 1.97179 0.784 1.45002C1.30667 0.928239 1.93422 0.666905 2.66667 0.666016H12H21.3333C22.0667 0.666016 22.6947 0.92735 23.2173 1.45002C23.74 1.97268 24.0009 2.60024 24 3.33268V12.2327C23.3778 11.9216 22.7276 11.6936 22.0493 11.5487C21.3711 11.4038 20.688 11.3318 20 11.3327H4V13.9993H13.4667C13.0889 14.3771 12.7391 14.7882 12.4173 15.2327C12.0956 15.6771 11.812 16.1549 11.5667 16.666H4V19.3327H10.7667C10.7222 19.5549 10.6947 19.7718 10.684 19.9833C10.6733 20.1949 10.6676 20.4225 10.6667 20.666C10.6667 21.5993 10.7947 22.494 11.0507 23.35C11.3067 24.206 11.6898 25.0225 12.2 25.7994L12 25.9993L10 23.9993L8 25.9993L6 23.9993L4 25.9993L2 23.9993L0 25.9993Z" fill="#F24822"/>
</svg>
