<svg width="32" height="32" viewBox="0 0 32 32" fill="none" xmlns="http://www.w3.org/2000/svg">
<path d="M21.6667 26.6667H23V21.3333H21.6667V26.6667ZM25 26.6667H26.3333V21.3333H25V26.6667ZM8 12H24V9.33333H8V12ZM24 30.6667C22.1556 30.6667 20.5836 30.0164 19.284 28.716C17.9844 27.4156 17.3342 25.8436 17.3333 24C17.3324 22.1564 17.9827 20.5844 19.284 19.284C20.5853 17.9836 22.1573 17.3333 24 17.3333C25.8427 17.3333 27.4151 17.9836 28.7173 19.284C30.0196 20.5844 30.6693 22.1564 30.6667 24C30.664 25.8436 30.0138 27.416 28.716 28.7173C27.4182 30.0187 25.8462 30.6684 24 30.6667ZM4 29.3333V6.66667C4 5.93333 4.26133 5.30578 4.784 4.784C5.30667 4.26222 5.93422 4.00089 6.66667 4H25.3333C26.0667 4 26.6947 4.26133 27.2173 4.784C27.74 5.30667 28.0009 5.93422 28 6.66667V15.5667C27.3778 15.2556 26.7276 15.0276 26.0493 14.8827C25.3711 14.7378 24.688 14.6658 24 14.6667H8V17.3333H17.4667C17.0889 17.7111 16.7391 18.1222 16.4173 18.5667C16.0956 19.0111 15.812 19.4889 15.5667 20H8V22.6667H14.7667C14.7222 22.8889 14.6947 23.1058 14.684 23.3173C14.6733 23.5289 14.6676 23.7564 14.6667 24C14.6667 24.9333 14.7947 25.828 15.0507 26.684C15.3067 27.54 15.6898 28.3564 16.2 29.1333L16 29.3333L14 27.3333L12 29.3333L10 27.3333L8 29.3333L6 27.3333L4 29.3333Z" fill="#0071DC"/>
</svg>
