<svg width="32" height="32" viewBox="0 0 32 32" fill="none" xmlns="http://www.w3.org/2000/svg">
<path fill-rule="evenodd" clip-rule="evenodd" d="M29.3332 13.334H2.6665V22.6673C2.6665 23.7282 3.08793 24.7456 3.83808 25.4957C4.58822 26.2459 5.60564 26.6673 6.6665 26.6673H25.3332C26.394 26.6673 27.4115 26.2459 28.1616 25.4957C28.9117 24.7456 29.3332 23.7282 29.3332 22.6673V13.334ZM14.1145 18.6673L14.2745 18.506C14.5176 18.2547 14.6522 17.918 14.6494 17.5684C14.6466 17.2188 14.5066 16.8843 14.2596 16.6369C14.0126 16.3895 13.6782 16.249 13.3286 16.2457C12.979 16.2425 12.6421 16.3766 12.3905 16.6193L9.95184 19.058C9.70188 19.308 9.56146 19.6471 9.56146 20.0007C9.56146 20.3542 9.70188 20.6933 9.95184 20.9433L12.3905 23.3807C12.5135 23.508 12.6606 23.6096 12.8233 23.6795C12.986 23.7493 13.1609 23.7861 13.338 23.7877C13.515 23.7892 13.6906 23.7555 13.8544 23.6884C14.0183 23.6214 14.1672 23.5224 14.2924 23.3972C14.4176 23.272 14.5166 23.1231 14.5836 22.9593C14.6506 22.7954 14.6844 22.6198 14.6828 22.4428C14.6813 22.2657 14.6445 22.0908 14.5746 21.9281C14.5048 21.7654 14.4032 21.6183 14.2758 21.4953L14.1145 21.334H19.9998C20.3535 21.334 20.6926 21.1935 20.9426 20.9435C21.1927 20.6934 21.3332 20.3543 21.3332 20.0007C21.3332 19.647 21.1927 19.3079 20.9426 19.0578C20.6926 18.8078 20.3535 18.6673 19.9998 18.6673H14.1145ZM6.6665 5.33398C5.60564 5.33398 4.58822 5.75541 3.83808 6.50556C3.08793 7.2557 2.6665 8.27312 2.6665 9.33398V10.6673H29.3332V9.33398C29.3332 8.27312 28.9117 7.2557 28.1616 6.50556C27.4115 5.75541 26.394 5.33398 25.3332 5.33398H6.6665Z" fill="#0071DC"/>
<path fill-rule="evenodd" clip-rule="evenodd" d="M6.2 5C5.08609 5 4.0178 5.47411 3.23015 6.31802C2.4425 7.16193 2 8.30653 2 9.5V11H30V9.5C30 8.30653 29.5575 7.16193 28.7698 6.31802C27.9822 5.47411 26.9139 5 25.8 5H6.2Z" fill="#FFC220"/>
</svg>
