<svg width="32" height="32" viewBox="0 0 32 32" fill="none" xmlns="http://www.w3.org/2000/svg">
<path fill-rule="evenodd" clip-rule="evenodd" d="M11.2845 3.45338L22.8733 15.063C22.9776 15.1627 23.0604 15.2827 23.1165 15.4156C23.1727 15.5485 23.201 15.6915 23.1997 15.8358C23.2003 15.9833 23.1718 16.1295 23.1158 16.2659C23.0598 16.4024 22.9774 16.5265 22.8733 16.631C18.6813 20.7206 14.6413 24.6678 10.7533 28.4726C10.5533 28.6598 9.75329 29.1254 9.13569 28.4342C8.51809 27.7414 8.89249 27.1382 9.13569 26.8886L20.4445 15.8358L9.64929 5.02138C9.25569 4.47845 9.28769 3.97765 9.74529 3.51898C10.204 3.06032 10.717 3.03738 11.2845 3.45338Z" fill="#004F9A"/>
</svg>
