<svg width="32" height="32" viewBox="0 0 32 32" fill="none" xmlns="http://www.w3.org/2000/svg">
<path d="M11.449 10.9819L14.913 4.00591C15.0138 3.80402 15.1689 3.63421 15.3609 3.51553C15.5528 3.39685 15.774 3.33398 15.9997 3.33398C16.2253 3.33398 16.4465 3.39685 16.6385 3.51553C16.8304 3.63421 16.9855 3.80402 17.0863 4.00591L20.5503 10.9819L28.2943 12.1072C28.5177 12.1382 28.7279 12.2314 28.9008 12.3761C29.0738 12.5207 29.2026 12.7112 29.2725 12.9255C29.3425 13.1399 29.3507 13.3697 29.2963 13.5885C29.242 13.8074 29.1271 14.0065 28.965 14.1632L23.3623 19.5899L24.685 27.2566C24.8543 28.2406 23.8143 28.9899 22.925 28.5259L15.9997 24.9046L9.073 28.5259C8.185 28.9912 7.145 28.2406 7.31433 27.2552L8.637 19.5886L3.03433 14.1619C2.87298 14.0051 2.75886 13.8061 2.70495 13.5877C2.65104 13.3692 2.6595 13.14 2.72936 12.9261C2.79922 12.7122 2.92769 12.5222 3.10016 12.3777C3.27263 12.2332 3.48218 12.1399 3.705 12.1086L11.449 10.9819Z" fill="#FFC220" stroke="#FFC220" stroke-width="2" stroke-linecap="round" stroke-linejoin="round"/>
</svg>
