<svg width="32" height="32" viewBox="0 0 32 32" fill="none" xmlns="http://www.w3.org/2000/svg">
<path d="M22.6667 26.6659C22.6667 24.4566 19.6813 22.6659 16 22.6659C12.3187 22.6659 9.33333 24.4566 9.33333 26.6659M28 22.6659C28 21.0259 26.3547 19.6166 24 18.9992M4 22.6659C4 21.0259 5.64533 19.6166 8 18.9992M24 13.6472C24.395 13.298 24.7171 12.8742 24.9477 12.4C25.1783 11.9259 25.3129 11.4108 25.3438 10.8845C25.3747 10.3582 25.3012 9.83092 25.1275 9.33308C24.9539 8.83525 24.6835 8.37666 24.332 7.98368C23.9805 7.5907 23.5548 7.27109 23.0794 7.04323C22.6039 6.81537 22.0881 6.68375 21.5616 6.65595C21.0351 6.62816 20.5082 6.70472 20.0114 6.88125C19.5146 7.05777 19.0576 7.33078 18.6667 7.68456M8 13.6472C7.2164 12.9381 6.74528 11.9477 6.68956 10.8923C6.63384 9.83692 6.99804 8.80239 7.70261 8.01468C8.40718 7.22697 9.39486 6.7501 10.4499 6.68824C11.5049 6.62639 12.5415 6.98457 13.3333 7.68456M16 18.6659C15.4747 18.6659 14.9546 18.5624 14.4693 18.3614C13.984 18.1604 13.543 17.8658 13.1716 17.4943C12.8001 17.1229 12.5055 16.6819 12.3045 16.1966C12.1035 15.7113 12 15.1912 12 14.6659C12 14.1406 12.1035 13.6205 12.3045 13.1352C12.5055 12.6499 12.8001 12.2089 13.1716 11.8375C13.543 11.466 13.984 11.1714 14.4693 10.9704C14.9546 10.7694 15.4747 10.6659 16 10.6659C17.0609 10.6659 18.0783 11.0873 18.8284 11.8375C19.5786 12.5876 20 13.605 20 14.6659C20 15.7268 19.5786 16.7442 18.8284 17.4943C18.0783 18.2445 17.0609 18.6659 16 18.6659Z" stroke="#0071DC" stroke-width="2.66667" stroke-linecap="round" stroke-linejoin="round"/>
</svg>
