<svg width="17" height="16" viewBox="0 0 17 16" fill="none" xmlns="http://www.w3.org/2000/svg">
<path d="M3.14558 5.40795C3.23091 5.30129 3.33758 5.24795 3.46558 5.24795C3.59358 5.24795 3.71091 5.27995 3.81758 5.34395L8.00958 9.53595L12.1696 5.40795C12.2549 5.30129 12.3616 5.24795 12.4896 5.24795C12.6176 5.24795 12.7242 5.27995 12.8096 5.34395L12.8736 5.40795C12.9589 5.49329 13.0069 5.59995 13.0176 5.72795C13.0282 5.85595 12.9909 5.96262 12.9056 6.04795L8.36158 10.592C8.27625 10.6986 8.16958 10.752 8.04158 10.752C7.91358 10.752 7.79625 10.72 7.68958 10.656L3.14558 6.11195C3.06024 6.00529 3.01758 5.88262 3.01758 5.74395C3.01758 5.60529 3.06024 5.49329 3.14558 5.40795Z" fill="#E6F1FC"/>
</svg>
