<svg width="25" height="24" viewBox="0 0 25 24" fill="none" xmlns="http://www.w3.org/2000/svg">
<path d="M17.482 16.8966C18.026 16.8966 18.474 17.0726 18.826 17.4246C19.178 17.7766 19.354 18.2166 19.354 18.7446C19.354 19.2726 19.178 19.7206 18.826 20.0886C18.474 20.4566 18.034 20.6406 17.506 20.6406C16.978 20.6406 16.53 20.4566 16.162 20.0886C15.794 19.7206 15.61 19.2726 15.61 18.7446C15.61 18.2166 15.794 17.7766 16.162 17.4246C16.53 17.0726 16.97 16.8966 17.482 16.8966ZM8.50605 16.8966C9.01805 16.8966 9.45805 17.0726 9.82605 17.4246C10.194 17.7766 10.378 18.2166 10.378 18.7446C10.378 19.2726 10.194 19.7206 9.82605 20.0886C9.45805 20.4566 9.01805 20.6406 8.50605 20.6406C7.99405 20.6406 7.55405 20.4566 7.18605 20.0886C6.81805 19.7206 6.63405 19.2726 6.63405 18.7446C6.63405 18.2166 6.81805 17.7766 7.18605 17.4246C7.55405 17.0726 7.99405 16.8966 8.50605 16.8966ZM5.24205 2.64062C5.43405 2.64062 5.60205 2.69662 5.74605 2.80862C5.89005 2.92063 5.97805 3.07262 6.01005 3.26463V5.61662H21.754C21.946 5.61662 22.106 5.67262 22.234 5.78463C22.362 5.89662 22.442 6.04862 22.474 6.24062L22.522 15.3606C22.522 15.5526 22.466 15.7206 22.354 15.8646C22.242 16.0086 22.09 16.0966 21.898 16.1286H5.24205C5.08205 16.1286 4.93005 16.0726 4.78605 15.9606C4.64205 15.8486 4.55405 15.6966 4.52205 15.5046V4.12862H2.26605C2.07405 4.12862 1.91405 4.07262 1.78605 3.96062C1.65805 3.84863 1.57805 3.69662 1.54605 3.50463L1.49805 3.36062C1.49805 3.20062 1.55405 3.04862 1.66605 2.90462C1.77805 2.76062 1.93005 2.67262 2.12205 2.64062H5.24205ZM21.034 7.10462H6.01005V14.6406H21.034V7.10462Z" fill="white"/>
</svg>
