<svg width="17" height="16" viewBox="0 0 17 16" fill="none" xmlns="http://www.w3.org/2000/svg">
<path d="M11.5855 1.98437C12.353 1.98437 13.0619 2.17637 13.7121 2.56037C14.3624 2.94437 14.8794 3.46171 15.2632 4.11237C15.6469 4.76304 15.8388 5.47237 15.8388 6.24037C15.8388 9.07771 13.5043 11.659 8.83517 13.9844C4.16609 11.659 1.83154 9.07771 1.83154 6.24037C1.83154 5.42971 2.0554 4.67237 2.50312 3.96837C2.95084 3.26437 3.5478 2.73637 4.294 2.38437C5.04021 2.03237 5.82372 1.91504 6.64454 2.03237C7.46536 2.14971 8.19557 2.47504 8.83517 3.00837C9.62401 2.32571 10.5408 1.98437 11.5855 1.98437ZM11.5855 3.00837C10.8819 3.00837 10.2423 3.21104 9.66665 3.61637L8.83517 4.32037L8.19557 3.77637C7.70521 3.37104 7.14556 3.12571 6.51662 3.04037C5.88768 2.95504 5.28539 3.04571 4.70975 3.31237C4.1341 3.57904 3.67572 3.97904 3.3346 4.51237C2.99348 5.04571 2.82292 5.62171 2.82292 6.24037C2.84424 8.52304 4.76305 10.6884 8.57933 12.7364L8.83517 12.8644L9.09101 12.7364C12.8007 10.7524 14.7088 8.65104 14.8154 6.43237L14.8474 6.24037C14.8474 5.66437 14.6982 5.12571 14.3997 4.62437C14.1012 4.12304 13.7068 3.72837 13.2164 3.44037C12.7261 3.15237 12.1824 3.00837 11.5855 3.00837Z" fill="white"/>
</svg>
