<svg width="21" height="20" viewBox="0 0 21 20" fill="none" xmlns="http://www.w3.org/2000/svg">
<path d="M8.94988 1.23933C10.2832 1.23933 11.5165 1.59933 12.6499 2.31933C13.7832 3.03933 14.6299 3.99933 15.1899 5.19933C15.7499 6.39933 15.9432 7.666 15.7699 8.99933C15.5965 10.3327 15.0832 11.506 14.2299 12.5193L19.3899 17.6793C19.4965 17.786 19.5565 17.9193 19.5699 18.0793C19.5832 18.2393 19.5365 18.386 19.4299 18.5193C19.3232 18.6527 19.1899 18.726 19.0299 18.7393C18.8699 18.7527 18.7232 18.7193 18.5899 18.6393L13.3499 13.3993C12.1765 14.386 10.8365 14.9193 9.32988 14.9993C7.82322 15.0793 6.43655 14.6993 5.16988 13.8593C3.90322 13.0193 3.00988 11.886 2.48988 10.4593C1.96988 9.03266 1.92988 7.59266 2.36988 6.13933C2.80988 4.686 3.63655 3.506 4.84988 2.59933C6.06322 1.69266 7.42988 1.23933 8.94988 1.23933ZM8.94988 2.47933C7.93655 2.47933 6.99655 2.73266 6.12988 3.23933C5.26322 3.746 4.57655 4.43266 4.06988 5.29933C3.56322 6.166 3.31655 7.106 3.32988 8.11933C3.34322 9.13266 3.59655 10.0727 4.08988 10.9393C4.58322 11.806 5.26322 12.4927 6.12988 12.9993C6.99655 13.506 7.93655 13.7593 8.94988 13.7593C9.96322 13.7593 10.9032 13.506 11.7699 12.9993C12.6365 12.4927 13.3232 11.806 13.8299 10.9393C14.3365 10.0727 14.5899 9.13266 14.5899 8.11933C14.5899 7.106 14.3365 6.166 13.8299 5.29933C13.3232 4.43266 12.6365 3.746 11.7699 3.23933C10.9032 2.73266 9.96322 2.47933 8.94988 2.47933Z" fill="#E6F1FC"/>
</svg>
