<svg width="17" height="16" viewBox="0 0 17 16" fill="none" xmlns="http://www.w3.org/2000/svg">
<path d="M8.72536 0.991812C9.42892 0.991812 10.0792 1.19448 10.6761 1.59981C11.2731 2.00515 11.7048 2.53848 11.9713 3.19981C12.2378 3.86115 12.2965 4.53848 12.1472 5.23181C11.998 5.92515 11.6675 6.51715 11.1558 7.00781C12.1579 7.13581 13.0054 7.57848 13.6983 8.33581C14.3912 9.09315 14.7376 9.98381 14.7376 11.0078V15.0078H2.7451V11.0078C2.72378 9.98381 3.05957 9.09315 3.75247 8.33581C4.44537 7.57848 5.29284 7.13581 6.29488 7.00781C5.7832 6.51715 5.45274 5.92515 5.3035 5.23181C5.15426 4.53848 5.21289 3.86115 5.47939 3.19981C5.74589 2.53848 6.17762 2.00515 6.77458 1.59981C7.37154 1.19448 8.0218 0.991812 8.72536 0.991812ZM10.7401 7.99981H6.7426C5.93244 7.99981 5.23954 8.27181 4.6639 8.81581C4.08826 9.35981 3.77912 10.0265 3.73648 10.8158V13.9838H13.7142V11.0078C13.7142 10.2185 13.4424 9.53048 12.8988 8.94381C12.3551 8.35715 11.6888 8.04248 10.9 7.99981H10.7401ZM8.72536 1.98381C8.04312 1.98381 7.45682 2.22915 6.96646 2.71981C6.4761 3.21048 6.23092 3.80248 6.23092 4.49581C6.23092 5.18915 6.4761 5.78115 6.96646 6.27181C7.45682 6.76248 8.04312 7.00781 8.72536 7.00781C9.4076 7.00781 9.9939 6.76248 10.4843 6.27181C10.9746 5.78115 11.2198 5.18915 11.2198 4.49581C11.2198 3.80248 10.9746 3.21048 10.4843 2.71981C9.9939 2.22915 9.4076 1.98381 8.72536 1.98381Z" fill="white"/>
</svg>
